<?xml version="1.0" encoding="UTF-8"?>
<svg id="Camada_2" data-name="Camada 2" xmlns="http://www.w3.org/2000/svg" viewBox="0 0 497.64 341.85">
  <defs>
    <style>
      .cls-1 {
        fill-rule: evenodd;
      }

      .cls-1, .cls-2 {
        fill: #fff;
      }

      .cls-2 {
        font-family: Bauhaus93, 'Bauhaus 93';
        font-size: 122.96px;
      }
    </style>
  </defs>
  <g id="Camada_1-2" data-name="Camada 1">
    <path class="cls-1" d="m185.28,175.24c52.39,2.79,45.78.85,55.58,24.22,28.28-27.01,18.73-24.83,59.74-24.83,31.09,0,77-25.56,68.92-70.13-55.21,30.28-125.48,58.74-184.24,70.73h0Z"/>
    <path class="cls-1" d="m298.27,56.67c2.08-4.24,11.63-9.81,11.63-9.81-10.28-62.62-129.4-62.38-148.62.12-34.77,4-39.66,34.16-16.65,48.21,42.97,26.28,168.08-7.51,213.38-22.29-5.75-16.84-38.93-30.16-59.74-16.23Z"/>
    <path class="cls-1" d="m86.48,92.76c-40.4,42.03-1.35,74.49,45.17,78,92.18,7.15,215.82-57.53,286.09-100.29-75.41,39.12-182.65,93.14-274.34,87.2-36.97-2.42-85.2-20.71-56.92-64.92Z"/>
    <path class="cls-1" d="m132.15,57.52c-10.89,1.21-37.34,22.29-27.54,43.24,35.01,56.92,221.58,4,288.91-35.25-60.96,27.01-247.16,81.51-274.95,24.22-5.63-11.75-1.71-24.47,13.59-32.22h0Z"/>
    <path class="cls-1" d="m409.67,43.47c.98.73,13.1,3.88,16.16,4.6.25.12.98.24,1.22.36l1.47.85c-14.32,4.24-6.49,4-23.26-5.45-2.57-1.45-4.41-2.66-7.47-.24l6.37,12.48c-2.82.61-5.26-.12-8.57.97.12,0,.25,0,.37.12l2.32,1.09c1.1.24,1.96.49,2.94.73,3.43,1.09.86,2.18,5.26,2.42,4.78.24,9.43.12,14.45.12,11.02.12,18.73-2.18,29.14-3.88,1.47,2.42,1.59,2.91,4.28,2.79,1.96-.12,3.92-.61,5.02-1.45l-.98-3.51c0-.12-.12-.24-.12-.36,2.94-.24.37-.48,2.45,1.7,1.22,1.21,1.35,1.09,3.18.97,8.57-.6,5.39-3.03,4.16-6.06,8.33-3.51,22.65-7.02,27.79-12.11,6.61-6.66-7.1-7.15-9.55-7.63-5.63-1.09-12.24,1.45-16.53,2.91-5.63,1.94-25.1,9.81-28.4,10.54-4.04.73-18.73-1.94-23.99-2.91-2.33-.36-6-.85-7.71.97h0Z"/>
    <polygon class="cls-1" points="331.08 103.54 334.02 101.72 331.94 104.39 334.26 107.54 331.2 105.12 328.14 106.93 330.22 104.27 328.02 101.12 331.08 103.54"/>
    <polygon class="cls-1" points="380.17 54.85 383.47 52.31 381.27 55.94 384.45 59.58 380.41 56.91 376.98 59.7 379.19 55.94 376.01 52.31 380.17 54.85"/>
    <path class="cls-1" d="m96.65,80.41c-51.17,74.61,114.34,83.57,221.58,26.16-104.06,42.51-252.06,45.42-221.58-26.16h0Z"/>
    <polygon class="cls-1" points="425.71 71.32 429.01 68.66 426.93 72.41 429.99 76.05 425.95 73.38 422.65 76.05 424.85 72.41 421.67 68.78 425.71 71.32"/>
    <polygon class="cls-1" points="398.04 71.2 401.59 68.42 399.26 72.29 402.57 76.29 398.29 73.38 394.61 76.29 397.06 72.29 393.63 68.42 398.04 71.2"/>
    <text class="cls-2" transform="translate(0 311.11)"><tspan x="0" y="0">New</tspan></text>
    <text class="cls-2" transform="translate(235.83 311.11)"><tspan x="0" y="0">Tou</tspan></text>
    <text class="cls-2" transform="translate(434.27 311.11)"><tspan x="0" y="0">r</tspan></text>
  </g>
</svg>