<?xml version="1.0" encoding="UTF-8"?>
<svg id="Camada_2" data-name="Camada 2" xmlns="http://www.w3.org/2000/svg" viewBox="0 0 497.64 362.98">
  <defs>
    <style>
      .cls-1, .cls-2, .cls-3 {
        fill-rule: evenodd;
      }

      .cls-1, .cls-4 {
        fill: #f8c01b;
      }

      .cls-2 {
        fill: #231f20;
      }

      .cls-3, .cls-5 {
        fill: #1974b9;
      }

      .cls-4, .cls-5 {
        font-family: Bauhaus93, 'Bauhaus 93';
        font-size: 122.96px;
      }
    </style>
  </defs>
  <g id="Camada_1-2" data-name="Camada 1">
    <path class="cls-3" d="m185.28,175.24c52.39,2.79,45.78.85,55.58,24.22,28.28-27.01,18.73-24.83,59.74-24.83,31.09,0,77-25.56,68.92-70.13-55.21,30.28-125.48,58.74-184.24,70.73h0Z"/>
    <path class="cls-3" d="m298.27,56.67c2.08-4.24,11.63-9.81,11.63-9.81-10.28-62.62-129.4-62.38-148.62.12-34.77,4-39.66,34.16-16.65,48.21,42.97,26.28,168.08-7.51,213.38-22.29-5.75-16.84-38.93-30.16-59.74-16.23Z"/>
    <path class="cls-1" d="m86.48,92.76c-40.4,42.03-1.35,74.49,45.17,78,92.18,7.15,215.82-57.53,286.09-100.29-75.41,39.12-182.65,93.14-274.34,87.2-36.97-2.42-85.2-20.71-56.92-64.92Z"/>
    <path class="cls-1" d="m132.15,57.52c-10.89,1.21-37.34,22.29-27.54,43.24,35.01,56.92,221.58,4,288.91-35.25-60.96,27.01-247.16,81.51-274.95,24.22-5.63-11.75-1.71-24.47,13.59-32.22h0Z"/>
    <path class="cls-3" d="m409.67,43.47c.98.73,13.1,3.88,16.16,4.6.25.12.98.24,1.22.36l1.47.85c-14.32,4.24-6.49,4-23.26-5.45-2.57-1.45-4.41-2.66-7.47-.24l6.37,12.48c-2.82.61-5.26-.12-8.57.97.12,0,.25,0,.37.12l2.32,1.09c1.1.24,1.96.49,2.94.73,3.43,1.09.86,2.18,5.26,2.42,4.78.24,9.43.12,14.45.12,11.02.12,18.73-2.18,29.14-3.88,1.47,2.42,1.59,2.91,4.28,2.79,1.96-.12,3.92-.61,5.02-1.45l-.98-3.51c0-.12-.12-.24-.12-.36,2.94-.24.37-.48,2.45,1.7,1.22,1.21,1.35,1.09,3.18.97,8.57-.6,5.39-3.03,4.16-6.06,8.33-3.51,22.65-7.02,27.79-12.11,6.61-6.66-7.1-7.15-9.55-7.63-5.63-1.09-12.24,1.45-16.53,2.91-5.63,1.94-25.1,9.81-28.4,10.54-4.04.73-18.73-1.94-23.99-2.91-2.33-.36-6-.85-7.71.97h0Z"/>
    <polygon class="cls-1" points="331.08 103.54 334.02 101.72 331.94 104.39 334.26 107.54 331.2 105.12 328.14 106.93 330.22 104.27 328.02 101.12 331.08 103.54"/>
    <polygon class="cls-1" points="380.17 54.85 383.47 52.31 381.27 55.94 384.45 59.58 380.41 56.91 376.98 59.7 379.19 55.94 376.01 52.31 380.17 54.85"/>
    <path class="cls-1" d="m96.65,80.41c-51.17,74.61,114.34,83.57,221.58,26.16-104.06,42.51-252.06,45.42-221.58-26.16h0Z"/>
    <polygon class="cls-1" points="425.71 71.32 429.01 68.66 426.93 72.41 429.99 76.05 425.95 73.38 422.65 76.05 424.85 72.41 421.67 68.78 425.71 71.32"/>
    <polygon class="cls-1" points="398.04 71.2 401.59 68.42 399.26 72.29 402.57 76.29 398.29 73.38 394.61 76.29 397.06 72.29 393.63 68.42 398.04 71.2"/>
    <text class="cls-5" transform="translate(0 311.11)"><tspan x="0" y="0">New</tspan></text>
    <text class="cls-4" transform="translate(235.83 311.11)"><tspan x="0" y="0">Tou</tspan></text>
    <text class="cls-4" transform="translate(434.27 311.11)"><tspan x="0" y="0">r</tspan></text>
    <path class="cls-2" d="m367.56,347.12c0,2.24.49,3.92,1.47,5.03.99,1.12,2.22,1.67,3.71,1.67s2.71-.56,3.69-1.68c.98-1.12,1.47-2.83,1.47-5.12,0-2.16-.5-3.8-1.48-4.91-.99-1.12-2.21-1.67-3.68-1.67s-2.73.55-3.71,1.66c-.98,1.11-1.47,2.78-1.47,5.02m-3.04,0c0-3.24.9-5.64,2.71-7.2,1.5-1.3,3.35-1.94,5.52-1.94,2.41,0,4.38.79,5.91,2.37,1.53,1.57,2.29,3.75,2.29,6.53,0,2.25-.34,4.02-1.01,5.31-.68,1.29-1.66,2.29-2.96,3.01-1.29.72-2.71,1.07-4.23,1.07-2.46,0-4.44-.78-5.96-2.36-1.52-1.57-2.27-3.84-2.27-6.79Zm-27.05,8.77v-17.55h2.67v2.48c.55-.86,1.28-1.55,2.19-2.07.91-.52,1.95-.78,3.12-.78,1.3,0,2.36.27,3.19.81.83.54,1.41,1.29,1.75,2.26,1.4-2.05,3.21-3.07,5.44-3.07,1.75,0,3.09.48,4.03,1.44.94.96,1.41,2.45,1.41,4.45v12.03h-2.98v-11.05c0-1.18-.1-2.04-.29-2.56-.19-.52-.54-.94-1.05-1.26-.51-.32-1.1-.48-1.79-.48-1.24,0-2.27.41-3.08,1.23-.82.82-1.22,2.14-1.22,3.94v10.18h-2.98v-11.39c0-1.32-.24-2.31-.73-2.97-.48-.66-1.28-.99-2.38-.99-.83,0-1.61.22-2.32.66-.71.44-1.22,1.08-1.54,1.93-.32.85-.47,2.07-.47,3.66v9.1h-2.98Zm-18.09-5.24l2.94-.47c.16,1.18.63,2.08,1.38,2.71.76.63,1.81.94,3.17.94s2.38-.28,3.05-.83c.66-.55.99-1.21.99-1.96,0-.67-.3-1.2-.89-1.58-.42-.26-1.43-.6-3.04-1.01-2.17-.55-3.68-1.02-4.52-1.42-.84-.41-1.48-.96-1.91-1.67-.43-.7-.65-1.49-.65-2.34,0-.78.18-1.5.54-2.17.36-.67.85-1.22,1.46-1.66.46-.34,1.09-.63,1.89-.86.8-.24,1.65-.36,2.56-.36,1.38,0,2.58.2,3.62.6,1.04.39,1.81.94,2.3,1.61.49.68.83,1.59,1.02,2.73l-2.91.41c-.13-.91-.51-1.63-1.14-2.14-.63-.51-1.52-.77-2.68-.77-1.36,0-2.33.23-2.91.68-.58.45-.87.98-.87,1.58,0,.38.12.73.36,1.04.24.32.62.58,1.14.79.3.11,1.17.37,2.62.76,2.1.56,3.56,1.02,4.4,1.37.83.36,1.49.88,1.96,1.56.48.68.72,1.53.72,2.54s-.29,1.92-.87,2.79c-.58.87-1.41,1.55-2.5,2.03-1.09.48-2.33.72-3.7.72-2.28,0-4.02-.47-5.21-1.41-1.19-.95-1.96-2.34-2.29-4.2Zm-6.33,5.24v-17.55h2.98v17.55h-2.98Zm0-20.83v-3.38h2.98v3.38h-2.98Zm-11.29,20.83v-17.55h2.67v2.69c.68-1.25,1.31-2.07,1.89-2.46.58-.4,1.22-.6,1.91-.6,1,0,2.02.32,3.06.94l-1.06,2.74c-.72-.41-1.44-.61-2.16-.61-.65,0-1.23.2-1.74.59-.51.39-.88.93-1.1,1.62-.33,1.05-.5,2.21-.5,3.47v9.17h-2.98Zm-7.31,0v-2.61c-1.36,1.99-3.21,2.98-5.55,2.98-1.03,0-1.99-.2-2.89-.59-.9-.4-1.56-.9-1.99-1.49-.43-.6-.74-1.34-.91-2.2-.12-.59-.18-1.51-.18-2.77v-10.86h2.98v9.71c0,1.55.06,2.6.18,3.13.19.78.58,1.39,1.19,1.84.6.45,1.35.67,2.24.67s1.72-.23,2.5-.68c.78-.46,1.33-1.08,1.66-1.87.32-.78.48-1.93.48-3.42v-9.38h2.98v17.55h-2.67Zm-24.33,0v-21.37h-7.98v-2.84h19.17v2.84h-7.98v21.37h-3.21Zm-25.91-5.2l-5.42-6.77c-1.61.95-2.7,1.84-3.26,2.65-.56.82-.85,1.62-.85,2.42,0,.98.39,1.99,1.17,3.04.78,1.05,1.88,1.58,3.31,1.58.89,0,1.81-.27,2.76-.82.95-.55,1.71-1.25,2.28-2.11Zm-4.19-10.25c1.3-.77,2.13-1.43,2.51-2.01.38-.58.57-1.21.57-1.91,0-.83-.26-1.5-.79-2.03-.52-.52-1.18-.79-1.97-.79s-1.48.26-2.02.78c-.54.52-.81,1.16-.81,1.91,0,.37.1.77.29,1.18.19.42.48.86.87,1.32l1.33,1.54Zm6.09,12.57c-.98,1.08-2.05,1.89-3.21,2.43-1.16.54-2.41.81-3.75.81-2.48,0-4.45-.83-5.9-2.5-1.18-1.36-1.77-2.88-1.77-4.56,0-1.49.48-2.84,1.44-4.04.96-1.21,2.41-2.26,4.32-3.17-1.1-1.25-1.83-2.27-2.2-3.05-.37-.78-.55-1.53-.55-2.26,0-1.45.57-2.72,1.71-3.79,1.14-1.08,2.57-1.61,4.31-1.61s3.01.51,4.06,1.52c1.05,1.01,1.58,2.24,1.58,3.66,0,2.31-1.53,4.28-4.6,5.91l4.38,5.5c.5-.97.89-2.09,1.17-3.37l3.08.66c-.53,2.11-1.25,3.83-2.15,5.18,1.11,1.47,2.37,2.71,3.78,3.71l-1.99,2.36c-1.19-.76-2.42-1.89-3.7-3.38Zm-41.34-2.37l2.94-.47c.16,1.18.63,2.08,1.38,2.71.76.63,1.81.94,3.17.94s2.38-.28,3.05-.83c.66-.55.99-1.21.99-1.96,0-.67-.3-1.2-.89-1.58-.42-.26-1.43-.6-3.04-1.01-2.18-.55-3.68-1.02-4.52-1.42-.84-.41-1.48-.96-1.91-1.67-.43-.7-.65-1.49-.65-2.34,0-.78.18-1.5.54-2.17.36-.67.85-1.22,1.46-1.66.46-.34,1.09-.63,1.89-.86.8-.24,1.65-.36,2.56-.36,1.38,0,2.58.2,3.62.6,1.04.39,1.81.94,2.3,1.61.49.68.83,1.59,1.02,2.73l-2.91.41c-.13-.91-.51-1.63-1.14-2.14-.63-.51-1.52-.77-2.68-.77-1.36,0-2.33.23-2.91.68-.58.45-.87.98-.87,1.58,0,.38.12.73.36,1.04.24.32.62.58,1.14.79.3.11,1.17.37,2.62.76,2.1.56,3.56,1.02,4.4,1.37.83.36,1.49.88,1.96,1.56.48.68.72,1.53.72,2.54s-.29,1.92-.87,2.79c-.58.87-1.41,1.55-2.5,2.03-1.09.48-2.33.72-3.7.72-2.28,0-4.02-.47-5.21-1.41-1.19-.95-1.96-2.34-2.29-4.2Zm-17.62,5.24v-17.55h2.67v2.49c1.28-1.91,3.14-2.86,5.57-2.86,1.06,0,2.03.19,2.91.57.88.38,1.55.88,1.99,1.49.44.61.75,1.35.92,2.19.11.55.16,1.52.16,2.89v10.78h-2.98v-10.66c0-1.21-.11-2.12-.34-2.72-.23-.6-.64-1.08-1.23-1.44-.59-.36-1.28-.54-2.07-.54-1.26,0-2.35.4-3.27,1.21-.92.8-1.38,2.33-1.38,4.57v9.57h-2.98Zm-16.57-10.45h9.77c-.13-1.48-.51-2.58-1.12-3.32-.94-1.14-2.17-1.72-3.67-1.72-1.36,0-2.51.46-3.44,1.37-.92.91-1.44,2.14-1.54,3.67Zm9.74,4.77l3.08.41c-.48,1.79-1.37,3.18-2.68,4.16-1.31.99-2.98,1.48-5.01,1.48-2.56,0-4.59-.79-6.09-2.37-1.5-1.57-2.25-3.79-2.25-6.63s.76-5.23,2.27-6.85c1.52-1.63,3.48-2.44,5.9-2.44s4.25.79,5.73,2.39c1.48,1.59,2.23,3.84,2.23,6.73,0,.17,0,.44-.02.79h-13.07c.11,1.92.65,3.4,1.63,4.42.98,1.02,2.2,1.53,3.66,1.53,1.09,0,2.02-.29,2.78-.86.77-.57,1.38-1.49,1.83-2.76Zm-28.89-3.39c0,2.29.46,3.97,1.37,5.02.92,1.05,2.06,1.58,3.44,1.58s2.51-.52,3.44-1.57c.92-1.05,1.39-2.69,1.39-4.94s-.48-3.76-1.43-4.85c-.95-1.09-2.1-1.63-3.44-1.63s-2.45.54-3.38,1.61c-.92,1.07-1.39,2.66-1.39,4.77Zm-2.43,10.53l2.87.41c.12.89.46,1.54,1.01,1.95.74.55,1.75.82,3.03.82,1.38,0,2.44-.28,3.19-.82.75-.55,1.26-1.32,1.52-2.3.15-.6.23-1.87.21-3.8-1.3,1.53-2.92,2.3-4.86,2.3-2.41,0-4.28-.87-5.6-2.61-1.32-1.74-1.98-3.82-1.98-6.25,0-1.67.3-3.22.91-4.63.6-1.41,1.48-2.5,2.63-3.27,1.15-.77,2.5-1.16,4.06-1.16,2.07,0,3.78.85,5.12,2.54v-2.16h2.74v15.15c0,2.73-.28,4.67-.83,5.8-.55,1.14-1.44,2.04-2.64,2.7-1.21.66-2.69.99-4.45.99-2.09,0-3.78-.47-5.06-1.41-1.29-.94-1.91-2.35-1.87-4.24Zm-7.03-10.25c-1.08.44-2.7.81-4.87,1.12-1.23.17-2.1.37-2.6.59-.51.22-.9.54-1.17.96-.28.42-.42.89-.42,1.41,0,.78.3,1.44.9,1.97.6.52,1.48.79,2.64.79s2.16-.25,3.06-.75c.89-.5,1.55-1.18,1.97-2.04.32-.67.48-1.66.48-2.96l.02-1.08Zm.24,6.59c-1.1.94-2.17,1.6-3.19,1.99-1.02.39-2.11.58-3.29.58-1.93,0-3.41-.47-4.45-1.41-1.04-.94-1.56-2.14-1.56-3.6,0-.86.2-1.64.59-2.35.39-.71.91-1.27,1.54-1.7.64-.43,1.35-.76,2.14-.98.59-.15,1.47-.3,2.65-.45,2.4-.28,4.18-.63,5.31-1.02.01-.41.02-.66.02-.77,0-1.21-.28-2.06-.85-2.55-.76-.67-1.89-1-3.39-1-1.4,0-2.44.25-3.11.74-.67.49-1.16,1.36-1.48,2.61l-2.91-.41c.26-1.25.7-2.25,1.31-3.02.61-.77,1.49-1.35,2.64-1.77,1.14-.41,2.48-.62,3.99-.62s2.72.17,3.66.53c.94.36,1.63.79,2.07,1.33.44.54.75,1.21.93,2.03.1.51.15,1.42.15,2.73v3.94c0,2.76.06,4.5.19,5.24.12.74.37,1.44.73,2.12h-3.11c-.3-.63-.49-1.36-.57-2.2Zm-18.97,2.2v-17.55h2.98v17.55h-2.98Zm0-20.83v-3.38h2.98v3.38h-2.98Zm-14.67,20.83l-9.36-24.21h3.47l6.29,17.59c.5,1.41.93,2.73,1.27,3.96.37-1.32.81-2.64,1.3-3.96l6.53-17.59h3.27l-9.44,24.21h-3.33Z"/>
  </g>
</svg>